<svg width="27" height="13" viewBox="0 0 27 13" fill="none" xmlns="http://www.w3.org/2000/svg" class="-rotate-90"><path d="M13.4788 0.00439167C13.029 0.00354481 12.5931 0.154592 12.2467 0.431314L0.695484 9.71223C0.302325 10.0273 0.0550824 10.48 0.00814649 10.9709C-0.0387894 11.4617 0.118426 11.9504 0.445207 12.3295C0.771988 12.7085 1.24157 12.9469 1.75064 12.9921C2.25972 13.0374 2.76658 12.8858 3.15974 12.5708L13.4788 4.25505L23.7979 12.2738C23.9948 12.4279 24.2214 12.5431 24.4646 12.6126C24.7079 12.6821 24.9629 12.7045 25.2152 12.6786C25.4675 12.6528 25.7119 12.5791 25.9346 12.4618C26.1572 12.3445 26.3536 12.186 26.5124 11.9953C26.6888 11.8045 26.8223 11.5806 26.9047 11.3377C26.9871 11.0947 27.0165 10.838 26.9912 10.5836C26.9659 10.3292 26.8864 10.0825 26.7576 9.85915C26.6289 9.63574 26.4536 9.44038 26.2429 9.28531L14.6917 0.319943C14.3354 0.0869627 13.9083 -0.0241394 13.4788 0.00439167Z" fill="#A5A5A5"></path></svg>