<svg width="10" height="8" viewBox="0 0 10 8" fill="none" xmlns="http://www.w3.org/2000/svg" className="ml-2 absolute top-1/2 -translate-y-1/2 right-4 pointer-events-none">
    <path d="M5 7.5C5.2127 7.49893 5.4225 7.45051 5.61416 7.35826C5.80583 7.26601 5.97456 7.13225 6.10812 6.96667L9.61577 2.71667C9.82073 2.46081 9.94971 2.1525 9.98801 1.82689C10.0263 1.50128 9.97239 1.17145 9.83239 0.875C9.71885 0.617355 9.53356 0.397844 9.29865 0.242685C9.06374 0.0875265 8.78914 0.00327755 8.50765 0H1.49235C1.21086 0.00327755 0.936262 0.0875265 0.701353 0.242685C0.466444 0.397844 0.281154 0.617355 0.167609 0.875C0.0276098 1.17145 -0.0263147 1.50128 0.0119848 1.82689C0.0502853 2.1525 0.179267 2.46081 0.384232 2.71667L3.89188 6.96667C4.02544 7.13225 4.19417 7.26601 4.38584 7.35826C4.57751 7.45051 4.7873 7.49893 5 7.5Z" fill="currentColor"></path>
</svg>